<mxfile host="Electron" modified="2024-06-14T12:47:42.047Z" agent="Mozilla/5.0 (Macintosh; Intel Mac OS X 10_15_7) AppleWebKit/537.36 (KHTML, like Gecko) draw.io/24.5.3 Chrome/124.0.6367.207 Electron/30.0.6 Safari/537.36" etag="VRZIyTX_imdmC3NocEgu" version="24.5.3" type="device">
  <diagram name="Page-1" id="-acnIIcBZJhPDYeKTHra">
    <mxGraphModel dx="1036" dy="756" grid="1" gridSize="10" guides="1" tooltips="1" connect="1" arrows="1" fold="1" page="1" pageScale="1" pageWidth="850" pageHeight="1100" math="0" shadow="0">
      <root>
        <mxCell id="0" />
        <mxCell id="1" parent="0" />
        <mxCell id="dhhkZO8EHI7qu5Uln5wX-1" value="&lt;div&gt;&lt;b&gt;base&lt;/b&gt;:&amp;nbsp;&lt;span style=&quot;background-color: initial;&quot;&gt;https://schema.earth616.crc.nd.edu:8443/nd/scdoc/ont/&lt;/span&gt;&lt;/div&gt;&lt;div&gt;&lt;b&gt;dscdo:&lt;/b&gt;&amp;nbsp;https://schema.earth616.crc.nd.edu:8443/nd/scdoc/ont/&lt;br&gt;&lt;/div&gt;" style="shape=note;whiteSpace=wrap;html=1;backgroundOutline=1;darkOpacity=0.05;" vertex="1" parent="1">
          <mxGeometry x="20" y="30" width="420" height="70" as="geometry" />
        </mxCell>
        <mxCell id="dhhkZO8EHI7qu5Uln5wX-2" value="&lt;div&gt;&lt;b&gt;dc:creator:&lt;/b&gt;&amp;nbsp;Charles F Vardeman II&lt;/div&gt;&lt;div&gt;&lt;b&gt;owl:versionInfo:&lt;/b&gt; 0.0.1&lt;/div&gt;&lt;div&gt;&lt;b&gt;dc:title:&lt;/b&gt;&amp;nbsp;Process Role Module&lt;/div&gt;" style="shape=document;whiteSpace=wrap;html=1;boundedLbl=1;labelBackgroundColor=#ffffff;strokeColor=#000000;fontSize=12;fontColor=#000000;size=0.23333333333333334;" vertex="1" parent="1">
          <mxGeometry x="550" y="620" width="253" height="90" as="geometry" />
        </mxCell>
        <mxCell id="dhhkZO8EHI7qu5Uln5wX-3" value="dscdo:Process" style="rounded=1;whiteSpace=wrap;html=1;snapToPoint=1;points=[[0.1,0],[0.2,0],[0.3,0],[0.4,0],[0.5,0],[0.6,0],[0.7,0],[0.8,0],[0.9,0],[0,0.1],[0,0.3],[0,0.5],[0,0.7],[0,0.9],[0.1,1],[0.2,1],[0.3,1],[0.4,1],[0.5,1],[0.6,1],[0.7,1],[0.8,1],[0.9,1],[1,0.1],[1,0.3],[1,0.5],[1,0.7],[1,0.9]];fillColor=#fff2cc;strokeColor=#d6b656;" vertex="1" parent="1">
          <mxGeometry x="394" y="290" width="100" height="30" as="geometry" />
        </mxCell>
        <mxCell id="dhhkZO8EHI7qu5Uln5wX-4" value="dscdo:Role" style="rounded=1;whiteSpace=wrap;html=1;snapToPoint=1;points=[[0.1,0],[0.2,0],[0.3,0],[0.4,0],[0.5,0],[0.6,0],[0.7,0],[0.8,0],[0.9,0],[0,0.1],[0,0.3],[0,0.5],[0,0.7],[0,0.9],[0.1,1],[0.2,1],[0.3,1],[0.4,1],[0.5,1],[0.6,1],[0.7,1],[0.8,1],[0.9,1],[1,0.1],[1,0.3],[1,0.5],[1,0.7],[1,0.9]];fillColor=#fff2cc;strokeColor=#d6b656;" vertex="1" parent="1">
          <mxGeometry x="120" y="290" width="100" height="30" as="geometry" />
        </mxCell>
        <mxCell id="dhhkZO8EHI7qu5Uln5wX-5" value="" style="endArrow=classic;html=1;exitX=1;exitY=0.5;exitDx=0;exitDy=0;entryX=0;entryY=0.5;entryDx=0;entryDy=0;endSize=8;arcSize=0;rounded=0;" edge="1" source="dhhkZO8EHI7qu5Uln5wX-4" target="dhhkZO8EHI7qu5Uln5wX-3" parent="1">
          <mxGeometry width="50" height="50" relative="1" as="geometry">
            <mxPoint x="100" y="408.33" as="sourcePoint" />
            <mxPoint x="312.0000000000002" y="408.33" as="targetPoint" />
          </mxGeometry>
        </mxCell>
        <mxCell id="dhhkZO8EHI7qu5Uln5wX-6" value="dscdo:isParticipantIn" style="text;html=1;align=center;verticalAlign=middle;resizable=0;points=[];labelBackgroundColor=#ffffff;" vertex="1" connectable="0" parent="dhhkZO8EHI7qu5Uln5wX-5">
          <mxGeometry x="-0.1269" relative="1" as="geometry">
            <mxPoint x="4.17" as="offset" />
          </mxGeometry>
        </mxCell>
      </root>
    </mxGraphModel>
  </diagram>
</mxfile>
